<?xml version="1.0" standalone="no"?><!DOCTYPE svg PUBLIC "-//W3C//DTD SVG 1.1//EN" "http://www.w3.org/Graphics/SVG/1.1/DTD/svg11.dtd"><svg t="1557454296659" class="icon" style="" viewBox="0 0 1024 1024" version="1.1" xmlns="http://www.w3.org/2000/svg" p-id="1817" xmlns:xlink="http://www.w3.org/1999/xlink" width="200" height="200"><defs><style type="text/css"></style></defs><path d="M760.564315 854.041494H84.979253c-46.738589 0-84.979253-38.240664-84.979253-84.979253V174.207469c0-46.738589 38.240664-84.979253 84.979253-84.979253h165.709544c25.493776 0 55.236515 12.746888 72.232365 38.240664l123.219917 203.950207c25.493776 38.240664 76.481328 50.987552 114.721992 25.493776 8.497925-4.248963 16.995851-12.746888 21.244813-21.244813l152.962655-212.448133c21.244813-21.244813 42.489627-33.991701 72.232366-33.991701h127.468879c46.738589 0 84.979253 38.240664 84.979253 84.979253v582.107884h-42.489626V174.207469c0-21.244813-21.244813-42.489627-42.489627-42.489627h-127.468879c-12.746888 0-25.493776 4.248963-33.991702 16.995851l-152.962655 212.448133c-8.497925 12.746888-21.244813 25.493776-33.991702 33.991701-59.485477 33.991701-135.966805 16.995851-174.207468-38.240664L288.929461 152.962656c-8.497925-12.746888-25.493776-21.244813-38.240664-21.244814H84.979253c-21.244813 0-42.489627 21.244813-42.489626 42.489627v594.854772c0 21.244813 21.244813 42.489627 42.489626 42.489626h675.585062v42.489627z" p-id="1818"></path><path d="M849.792531 811.551867h84.979253v42.489627h-84.979253zM722.323651 471.634855h212.448133v42.489626h-212.448133zM552.365145 174.207469h-84.979253c-29.742739 0-50.987552-12.746888-67.983402-33.991701L361.161826 89.228216c-16.995851-21.244813-12.746888-55.236515 12.746888-76.481328l4.248962-4.248963h8.497926s8.497925-4.248963 16.99585-4.248962l208.19917-4.248963c33.991701 0 55.236515 29.742739 55.236515 55.236515 0 12.746888 0 25.493776-8.497925 38.240663l-38.240664 46.73859c-16.995851 21.244813-38.240664 33.991701-67.983403 33.991701zM395.153527 50.987552c-4.248963 4.248963-4.248963 12.746888 0 16.99585l38.240664 50.987552c8.497925 8.497925 21.244813 12.746888 33.991701 12.746888h84.979253c12.746888 0 25.493776-4.248963 33.991701-16.99585l38.240664-50.987552v-8.497925c0-4.248963-4.248963-12.746888-12.746888-12.746888L403.651452 46.738589l-8.497925 4.248963c4.248963-4.248963 4.248963-4.248963 0 0z m229.443983 12.746888z" p-id="1819"></path><path d="M509.875519 1007.004149c-16.995851 0-29.742739-4.248963-46.73859-12.746888l-118.970954-72.232365c-29.742739-16.995851-46.738589-50.987552-38.240664-84.979253l33.991701-233.692946 72.232366-403.651452c12.746888-42.489627 46.738589-67.983402 84.979253-67.983403h21.244813c42.489627 0 80.73029 29.742739 84.979253 67.983403l72.232365 403.651452 33.991701 233.692946c4.248963 33.991701-8.497925 67.983402-38.240663 84.979253L552.365145 994.257261c-12.746888 8.497925-25.493776 12.746888-42.489626 12.746888zM497.128631 174.207469c-21.244813 0-38.240664 12.746888-42.489627 33.991701L382.406639 611.850622l-33.991701 233.692946c-4.248963 16.995851 4.248963 33.991701 21.244813 42.489627l118.970954 72.232365c12.746888 8.497925 29.742739 8.497925 38.240664 0l118.970955-72.232365c12.746888-8.497925 21.244813-25.493776 21.244813-42.489627l-33.991701-233.692946-72.232365-403.651452c-4.248963-16.995851-21.244813-33.991701-42.489627-33.991701h-21.244813z" p-id="1820"></path><path d="M382.406639 501.377593c-4.248963 0-12.746888 0-16.995851-4.248962-8.497925-8.497925-8.497925-21.244813 0-29.742739l199.701245-199.701245c8.497925-8.497925 21.244813-8.497925 29.742739 0s8.497925 21.244813 0 29.742739l-199.701245 199.701245c0 4.248963-8.497925 4.248963-12.746888 4.248962zM365.410788 730.821577c-4.248963 0-12.746888 0-16.99585-4.248963-8.497925-8.497925-8.497925-21.244813 0-29.742738l254.937759-254.93776c8.497925-8.497925 21.244813-8.497925 29.742739 0s8.497925 21.244813 0 29.742739l-254.93776 254.937759c0 4.248963-8.497925 4.248963-12.746888 4.248963zM371.529295 925.339087l276.39502-276.395021 30.040166 30.040166-276.39502 276.395021z" p-id="1821"></path></svg>