<?xml version="1.0" standalone="no"?><!DOCTYPE svg PUBLIC "-//W3C//DTD SVG 1.1//EN" "http://www.w3.org/Graphics/SVG/1.1/DTD/svg11.dtd"><svg t="1557454409160" class="icon" style="" viewBox="0 0 1024 1024" version="1.1" xmlns="http://www.w3.org/2000/svg" p-id="2973" xmlns:xlink="http://www.w3.org/1999/xlink" width="200" height="200"><defs><style type="text/css"></style></defs><path d="M240.941176 301.176471h542.117648v60.235294H240.941176zM120.470588 542.117647h662.588236v60.235294H120.470588zM120.470588 783.058824h662.588236v60.235294H120.470588z" p-id="2974"></path><path d="M106.315294 60.235294h690.898824C855.943529 60.235294 903.529412 114.145882 903.529412 180.705882v722.82353c0 66.56-47.585882 120.470588-106.315294 120.470588H106.315294C47.585882 1024 0 970.089412 0 903.529412V180.705882c0-66.56 47.585882-120.470588 106.315294-120.470588z m6.144 60.235294C83.606588 120.470588 60.235294 147.456 60.235294 180.705882v722.82353c0 33.249882 23.371294 60.235294 52.224 60.235294h678.610824c28.852706 0 52.224-26.985412 52.224-60.235294V180.705882c0-33.249882-23.371294-60.235294-52.224-60.235294H112.459294z" p-id="2975"></path><path d="M240.941176 0h60.235295v180.705882H240.941176zM602.352941 0h60.235294v180.705882h-60.235294zM963.764706 240.941176h60.235294v722.82353h-60.235294zM963.764706 60.235294h60.235294v120.470588h-60.235294z" p-id="2976"></path></svg>