<?xml version="1.0" standalone="no"?><!DOCTYPE svg PUBLIC "-//W3C//DTD SVG 1.1//EN" "http://www.w3.org/Graphics/SVG/1.1/DTD/svg11.dtd"><svg t="1530586940882" class="icon" style="" viewBox="0 0 1024 1024" version="1.1" xmlns="http://www.w3.org/2000/svg" p-id="7720" xmlns:xlink="http://www.w3.org/1999/xlink" width="300" height="300"><defs><style type="text/css"></style></defs><path d="M800 32h-576a128 128 0 0 0-128 128v704a128 128 0 0 0 128 128h576a128 128 0 0 0 128-128v-704a128 128 0 0 0-128-128z m64 832a64 64 0 0 1-64 64h-576a64 64 0 0 1-64-64v-704a64 64 0 0 1 64-64h576a64 64 0 0 1 64 64v704z" fill="" p-id="7721"></path><path d="M288 736h448a32 32 0 0 1 0 64h-448a32 32 0 0 1 0-64zM288 576h448a32 32 0 0 1 0 64h-448a32 32 0 0 1 0-64zM297.152 297.216a31.808 31.808 0 0 1 44.992 0l160.768 160.704a31.872 31.872 0 0 1-44.992 44.928L297.152 342.144a31.744 31.744 0 0 1 0-44.928z" fill="" p-id="7722"></path><path d="M758.848 201.152c12.16 12.16 12.16 32 0 44.16L501.312 502.848a31.296 31.296 0 0 1-44.16-44.16l257.536-257.536a31.168 31.168 0 0 1 44.16 0z" fill="" p-id="7723"></path></svg>