<svg width="18" height="18" viewBox="0 0 18 18" fill="none" xmlns="http://www.w3.org/2000/svg">
<path fill-rule="evenodd" clip-rule="evenodd" d="M15.9949 2.82373C15.9037 1.24892 14.5977 0 13 0H5L4.82373 0.00509269C3.24892 0.0963391 2 1.40232 2 3V4.06056C0.855736 4.31422 0 5.33495 0 6.55556V15.4444C0 16.8558 1.14416 18 2.55556 18H15.4444C16.8558 18 18 16.8558 18 15.4444V8.88889L17.9946 8.72086C17.9202 7.5755 17.0913 6.63582 16 6.39389V3L15.9949 2.82373ZM14 6.33325V3C14 2.48716 13.614 2.06449 13.1166 2.00673L13 2H5C4.48716 2 4.06449 2.38604 4.00673 2.88338L4 3V4H7.44444C7.7788 4 8.09103 4.1671 8.27649 4.4453L9.535 6.333L14 6.33325ZM3 6H2.55556C2.24873 6 2 6.24873 2 6.55556V15.4444C2 15.7513 2.24873 16 2.55556 16H15.4444C15.7513 16 16 15.7513 16 15.4444V8.88889C16 8.58206 15.7513 8.33333 15.4444 8.33333H9C8.66565 8.33333 8.35342 8.16623 8.16795 7.88803L6.909 6H3Z" fill="#134075"/>
</svg>
