<svg id="icons8-cancel" xmlns="http://www.w3.org/2000/svg" width="15" height="15" viewBox="0 0 15 15">
  <path id="icons8-cancel-2" data-name="icons8-cancel" d="M8.5,1A7.5,7.5,0,1,0,16,8.5,7.512,7.512,0,0,0,8.5,1Zm0,1.154A6.346,6.346,0,1,1,2.154,8.5,6.338,6.338,0,0,1,8.5,2.154ZM6.192,5.377l-.816.816.41.406,1.9,1.9-1.9,1.9-.41.406.816.816.406-.41,1.9-1.9,1.9,1.9.406.41.816-.816-.41-.406-1.9-1.9,1.9-1.9.41-.406-.816-.816-.406.41-1.9,1.9-1.9-1.9Z" transform="translate(-1 -1)" fill="#032544"/>
</svg>
