<svg width="14" height="20" viewBox="0 0 14 20" fill="none" xmlns="http://www.w3.org/2000/svg">
<path fill-rule="evenodd" clip-rule="evenodd" d="M1.3755 20C0.575498 19.7481 0 19.0146 0 18.1486V11.5979L1.2631 10.3605C1.42715 10.2003 1.71246 10.3147 1.71246 10.5393V16.6866C1.71246 17.3053 2.08658 17.8324 2.62452 18.0707C2.86311 18.1759 2.93794 18.4692 2.75541 18.648L1.3755 20Z" fill="white"/>
<path opacity="0.6" fill-rule="evenodd" clip-rule="evenodd" d="M3.27934 4.57138C3.0461 4.57138 2.85718 4.37972 2.85718 4.1428C2.85718 3.90619 3.0461 3.71423 3.27934 3.71423H9.86359C10.0968 3.71423 10.2857 3.90619 10.2857 4.1428C10.2857 4.37972 10.0968 4.57138 9.86359 4.57138H3.27934Z" fill="white"/>
<path fill-rule="evenodd" clip-rule="evenodd" d="M7.42864 15.7143C7.42864 16.1876 7.04487 16.5714 6.5715 16.5714C6.09812 16.5714 5.71436 16.1876 5.71436 15.7143C5.71436 15.2409 6.09812 14.8571 6.5715 14.8571C7.04487 14.8571 7.42864 15.2409 7.42864 15.7143Z" fill="white"/>
<path opacity="0.8" fill-rule="evenodd" clip-rule="evenodd" d="M6.16905 1.71915H3.17276C2.33981 1.71915 1.71486 2.53063 1.71486 3.3636V7.95625C1.71486 8.19755 1.61491 8.43428 1.44187 8.60733L0 10V1.92981C0 0.864673 0.86522 0 1.93004 0H10L8.14363 1.71887L6.16905 1.71915Z" fill="white"/>
<path fill-rule="evenodd" clip-rule="evenodd" d="M13.1429 8.66566L13.142 8.65293L11.8599 9.92652C11.7002 10.0834 11.4277 9.97283 11.4277 9.74681V3.39504C11.4277 2.55089 10.7322 1.86823 9.87268 1.86823C9.73212 1.86823 9.66169 1.70212 9.76041 1.60054L11.3899 -6.10352e-05C12.3809 0.115405 13.142 0.941029 13.142 1.94202V6.47036L13.1429 8.66566Z" fill="white" fill-opacity="0.4"/>
<path opacity="0.8" fill-rule="evenodd" clip-rule="evenodd" d="M4.72408 18.2823L2.85718 20H11.2294C12.2879 20 13.1429 19.1407 13.1429 18.0822V10.2857L11.6194 11.7465C11.4971 11.8734 11.4293 12.0405 11.4293 12.2125V16.6392C11.4293 17.467 10.8222 18.2823 9.99449 18.2823H6.75132H4.72408Z" fill="white"/>
</svg>
