<?xml version="1.0" standalone="no"?><!DOCTYPE svg PUBLIC "-//W3C//DTD SVG 1.1//EN" "http://www.w3.org/Graphics/SVG/1.1/DTD/svg11.dtd"><svg t="1575599234943" class="icon" viewBox="0 0 1024 1024" version="1.1" xmlns="http://www.w3.org/2000/svg" p-id="2430" xmlns:xlink="http://www.w3.org/1999/xlink" width="200" height="200"><defs><style type="text/css"></style></defs><path d="M524.047059 421.647059h228.894117c18.070588 0 30.117647 12.047059 30.117648 30.117647s-12.047059 30.117647-30.117648 30.117647H548.141176l6.02353 18.070588c12.047059 24.094118 30.117647 42.164706 60.235294 42.164706H903.529412V120.470588c0-36.141176-24.094118-60.235294-60.235294-60.235294H301.176471c-36.141176 0-60.235294 24.094118-60.235295 60.235294v180.705883h156.611765c48.188235 0 96.376471 30.117647 114.447059 78.305882l12.047059 42.164706zM180.705882 301.176471V120.470588c0-24.094118 6.023529-42.164706 18.070589-60.235294H180.705882c-36.141176 0-60.235294 24.094118-60.235294 60.235294v180.705883h60.235294z m783.058824 259.011764c36.141176 18.070588 60.235294 60.235294 60.235294 102.4v240.941177c0 66.258824-54.211765 120.470588-120.470588 120.470588H120.470588c-66.258824 0-120.470588-54.211765-120.470588-120.470588V421.647059c0-42.164706 24.094118-84.329412 60.235294-102.4V120.470588c0-66.258824 54.211765-120.470588 120.470588-120.470588h662.588236c66.258824 0 120.470588 54.211765 120.470588 120.470588v439.717647zM331.294118 180.705882h421.647058c18.070588 0 30.117647 12.047059 30.117648 30.117647s-12.047059 30.117647-30.117648 30.117647h-421.647058c-18.070588 0-30.117647-12.047059-30.117647-30.117647s12.047059-30.117647 30.117647-30.117647z" p-id="2431"></path></svg>