<svg width="20" height="21" viewBox="0 0 20 21"  xmlns="http://www.w3.org/2000/svg">
<path d="M2.25 0C1.0162 0 0 1.0162 0 2.25V15.75C0 16.9838 1.0162 18 2.25 18H7.14258C8.3557 19.8069 10.4172 21 12.75 21C16.469 21 19.5 17.969 19.5 14.25C19.5 11.3232 17.6125 8.84565 15 7.91309V4.93945L10.0605 0H2.25ZM2.25 1.5H9V6H13.5V7.57617C13.2503 7.54799 13.007 7.5 12.75 7.5C9.03096 7.5 6 10.531 6 14.25C6 15.0422 6.16067 15.7929 6.41309 16.5H2.25C1.8278 16.5 1.5 16.1722 1.5 15.75V2.25C1.5 1.8278 1.8278 1.5 2.25 1.5ZM10.5 2.56055L12.4395 4.5H10.5V2.56055ZM12.75 9C15.6584 9 18 11.3416 18 14.25C18 17.1584 15.6584 19.5 12.75 19.5C9.84162 19.5 7.5 17.1584 7.5 14.25C7.5 11.3416 9.84162 9 12.75 9ZM12 10.5V13.5H9V15H12V18H13.5V15H16.5V13.5H13.5V10.5H12Z"/>
</svg>
