<svg width="20" height="21" viewBox="0 0 20 21" xmlns="http://www.w3.org/2000/svg">
<path d="M2.71191 0C1.47812 0 0.461914 1.0162 0.461914 2.25V15.75C0.461914 16.9838 1.47812 18 2.71191 18H9.5V16.5H2.71191C2.28971 16.5 1.96191 16.1722 1.96191 15.75V2.25C1.96191 1.8278 2.28971 1.5 2.71191 1.5H9.46191V6H13.9619V10.5H15.4619V4.93945L10.5225 0H2.71191ZM10.9619 2.56055L12.9014 4.5H10.9619V2.56055ZM12.0928 12.0322L11.0322 13.0928L14.4395 16.5L11.0322 19.9072L12.0928 20.9678L15.5 17.5605L18.9072 20.9678L19.9678 19.9072L16.5605 16.5L19.9678 13.0928L18.9072 12.0322L15.5 15.4395L12.0928 12.0322Z"/>
</svg>
