<svg width="22" height="20" viewBox="0 0 22 20" xmlns="http://www.w3.org/2000/svg">
<path d="M2.75 0.5C1.51367 0.5 0.5 1.51367 0.5 2.75V14.75C0.5 15.9863 1.51367 17 2.75 17H5V17.75C5 18.9863 6.01367 20 7.25 20H19.25C20.4863 20 21.5 18.9863 21.5 17.75V5.75C21.5 4.51367 20.4863 3.5 19.25 3.5H17V2.75C17 1.51367 15.9863 0.5 14.75 0.5H2.75ZM2.75 2H14.75C15.1719 2 15.5 2.32812 15.5 2.75V14.75C15.5 15.1719 15.1719 15.5 14.75 15.5H2.75C2.32812 15.5 2 15.1719 2 14.75V2.75C2 2.32812 2.32812 2 2.75 2ZM17 5H19.25C19.6719 5 20 5.32812 20 5.75V17.75C20 18.1719 19.6719 18.5 19.25 18.5H7.25C6.82812 18.5 6.5 18.1719 6.5 17.75V17H14.75C15.9863 17 17 15.9863 17 14.75V5Z"/>
</svg>
