<svg width="20" height="22" viewBox="0 0 20 22" xmlns="http://www.w3.org/2000/svg">
<path d="M2.71191 0C1.47812 0 0.461914 1.0162 0.461914 2.25V15.75C0.461914 16.9838 1.47812 18 2.71191 18H6.5V16.5H2.71191C2.28971 16.5 1.96191 16.1722 1.96191 15.75V2.25C1.96191 1.8278 2.28971 1.5 2.71191 1.5H9.46192V6H13.9619V7.5H15.4619V4.93945L10.5225 0H2.71191ZM10.9619 2.56055L12.9014 4.5H10.9619V2.56055ZM17.2725 9.00586C16.7792 9.00901 16.287 9.20084 15.9189 9.57715L8.98438 16.6318L7.92676 21.0762L12.3682 20.0186L12.5176 19.8721L19.4258 13.0869C20.1817 12.3481 20.1877 11.1125 19.4404 10.3652L18.6377 9.5625C18.2638 9.18857 17.7679 9.0027 17.2725 9.00586ZM17.2813 10.4971C17.3857 10.4964 17.4921 10.538 17.5772 10.623L18.3799 11.4258C18.5476 11.5935 18.5481 11.8474 18.377 12.0146V12.0176L11.6182 18.6533L9.95117 19.0518L10.3467 17.3877L16.9883 10.6289L16.9912 10.626C17.0741 10.5406 17.1768 10.4977 17.2813 10.4971Z"/>
</svg>
