<svg width="21" height="20" viewBox="0 0 21 20" xmlns="http://www.w3.org/2000/svg">
<path d="M2.75 0.5C1.5162 0.5 0.5 1.5162 0.5 2.75V17.75C0.5 18.9838 1.5162 20 2.75 20H17.75C18.9838 20 20 18.9838 20 17.75V15.5H18.5V17.75C18.5 18.1722 18.1722 18.5 17.75 18.5H2.75C2.3278 18.5 2 18.1722 2 17.75V2.75C2 2.3278 2.3278 2 2.75 2H17.75C18.1722 2 18.5 2.3278 18.5 2.75V5H20V2.75C20 1.5162 18.9838 0.5 17.75 0.5H2.75ZM15.0928 5.03223L14.0322 6.09277L17.4395 9.5H6.5V11H17.4395L14.0322 14.4072L15.0928 15.4678L20.3105 10.25L15.0928 5.03223Z"/>
</svg>
