<?xml version="1.0" standalone="no"?><!DOCTYPE svg PUBLIC "-//W3C//DTD SVG 1.1//EN" "http://www.w3.org/Graphics/SVG/1.1/DTD/svg11.dtd"><svg t="1534832220910" class="icon" style="" viewBox="0 0 1024 1024" version="1.1" xmlns="http://www.w3.org/2000/svg" p-id="1690" xmlns:xlink="http://www.w3.org/1999/xlink" width="200" height="200"><defs><style type="text/css"></style></defs><path d="M542.117647 481.882353h120.470588l-150.768941 200.824471L361.050353 481.882353H481.882353V180.705882a180.705882 180.705882 0 0 1 180.705882-180.705882h361.411765v60.235294h-361.411765a120.470588 120.470588 0 0 0-120.470588 120.470588v301.176471z m421.647059 361.411765V361.411765h60.235294v481.882353a180.705882 180.705882 0 0 1-180.705882 180.705882H180.705882a180.705882 180.705882 0 0 1-180.705882-180.705882V361.411765h60.235294v481.882353a120.470588 120.470588 0 0 0 120.470588 120.470588h662.588236a120.470588 120.470588 0 0 0 120.470588-120.470588z" p-id="1691"></path></svg>