<svg width="20" height="21" viewBox="0 0 20 21" xmlns="http://www.w3.org/2000/svg">
<path d="M0.5 0V0.75V2.96191C0.5 3.70161 0.864303 4.39369 1.47266 4.81348L6.5 8.62207V18L9.5 15V8.62207L14.5273 4.81348C15.1357 4.39369 15.5 3.70161 15.5 2.96191V0H0.5ZM2 1.5H14V2.96191C14 3.20921 13.8794 3.43886 13.6748 3.58008L13.6602 3.58887L8.49805 7.5H7.50195L2.33984 3.58887L2.3252 3.58008C2.12055 3.43886 2 3.20921 2 2.96191V1.5ZM12.2803 12.2197L11.2197 13.2803L14.4395 16.5L11.2197 19.7197L12.2803 20.7803L15.5 17.5605L18.7197 20.7803L19.7803 19.7197L16.5605 16.5L19.7803 13.2803L18.7197 12.2197L15.5 15.4395L12.2803 12.2197Z"/>
</svg>
