<?xml version="1.0" encoding="utf-8"?>
<!-- Generator: Adobe Illustrator 24.0.3, SVG Export Plug-In . SVG Version: 6.00 Build 0)  -->
<svg version="1.1" id="图层_1" xmlns="http://www.w3.org/2000/svg" xmlns:xlink="http://www.w3.org/1999/xlink" x="0px" y="0px"
	 viewBox="0 0 16 16" style="enable-background:new 0 0 16 16;" xml:space="preserve">
<title>物流管理</title>
<desc>Created with Sketch.</desc>
<g id="页面1">
	<g id="物流管理">
		<path id="形状结合" class="st0" d="M14.3,1.7C14.7,1.7,15,2,15,2.3l0,0V5c0,0.4-0.3,0.7-0.7,0.7l0,0V12c0,1.1-0.8,1.9-1.9,2
			l-0.1,0H3.7c-1.1,0-1.9-0.8-2-1.9l0-0.1V5.7l-0.1,0C1.2,5.6,1,5.3,1,5l0,0V2.3C1,2,1.3,1.7,1.7,1.7l0,0H14.3z M13,5.7H3V12
			c0,0.3,0.3,0.6,0.6,0.7l0.1,0h8.7c0.3,0,0.6-0.3,0.7-0.6l0-0.1V5.7z M9.4,7.3c0.4,0,0.7,0.3,0.7,0.7c0,0.3-0.3,0.6-0.6,0.7l-0.1,0
			H6.7C6.3,8.7,6,8.4,6,8c0-0.3,0.3-0.6,0.6-0.7l0.1,0H9.4z M13.7,3H2.3v1.3h11.3V3z"/>
	</g>
</g>
</svg>
