<svg xmlns="http://www.w3.org/2000/svg" width="16" height="13.707" viewBox="0 0 16 13.707"><defs></defs><path class="a" d="M1.854,1.146l-.707.707L2.293,3H1.5A1.508,1.508,0,0,0,0,4.5v7A1.508,1.508,0,0,0,1.5,13h.6a1.489,1.489,0,0,0,2.813,0H11.1A1.5,1.5,0,0,0,12.5,14a1.482,1.482,0,0,0,.641-.15l1,1,.707-.707ZM5.121,3l1,1H8.5a.5.5,0,0,1,.5.5V6.881l1,1V7h2.938a.5.5,0,0,1,.418.227l1.561,2.3A.494.494,0,0,1,15,9.8v1.7a.5.5,0,0,1-.5.5h-.379l.9.9A1.5,1.5,0,0,0,16,11.5V9.8a1.486,1.486,0,0,0-.254-.834l-1.559-2.3A1.5,1.5,0,0,0,12.939,6H10V4.5A1.5,1.5,0,0,0,8.5,3ZM1.5,4H3.293L9,9.707V12H4.908A1.489,1.489,0,0,0,2.1,12H1.5a.493.493,0,0,1-.5-.5v-7A.493.493,0,0,1,1.5,4ZM10,10.707l1.152,1.152a1.493,1.493,0,0,0-.059.141H10ZM3.5,12a.5.5,0,1,1-.5.5A.493.493,0,0,1,3.5,12Z" transform="translate(0 -1.146)"/></svg>
