<svg xmlns="http://www.w3.org/2000/svg" width="13.98" height="13.98" viewBox="0 0 13.98 13.98"><defs></defs><path class="a" d="M7.977,1.02a.522.522,0,0,0-.3.129L6.465,2.242,4.871,1.9a.507.507,0,0,0-.582.336l-.5,1.555-1.555.5a.5.5,0,0,0-.336.578l.344,1.6L1.148,7.672a.5.5,0,0,0,0,.672L2.242,9.555l-.344,1.6a.5.5,0,0,0,.336.578l1.555.5.5,1.551a.5.5,0,0,0,.578.34l1.6-.344,1.207,1.094a.5.5,0,0,0,.672,0l1.211-1.094,1.6.344a.5.5,0,0,0,.578-.34l.5-1.551,1.551-.5a.5.5,0,0,0,.34-.578l-.344-1.6,1.094-1.211a.5.5,0,0,0,0-.672L13.777,6.465l.344-1.6a.5.5,0,0,0-.34-.578l-1.551-.5-.5-1.555a.5.5,0,0,0-.578-.336l-1.6.344L8.344,1.148a.5.5,0,0,0-.316-.129ZM8.008,2.2l1.066.961a.5.5,0,0,0,.441.117l1.4-.3.441,1.367a.5.5,0,0,0,.32.324l1.367.438-.3,1.406a.5.5,0,0,0,.117.438l.965,1.063-.965,1.066a.5.5,0,0,0-.117.441l.3,1.4-1.367.441a.487.487,0,0,0-.32.32l-.441,1.367-1.4-.3a.5.5,0,0,0-.441.117l-1.066.965-1.063-.965a.5.5,0,0,0-.437-.117l-1.406.3L4.664,11.68a.5.5,0,0,0-.324-.32l-1.363-.441.3-1.4a.5.5,0,0,0-.117-.441L2.2,8.008l.961-1.063a.485.485,0,0,0,.117-.437L2.977,5.1,4.34,4.664a.515.515,0,0,0,.324-.324L5.1,2.973l1.4.3a.5.5,0,0,0,.441-.117Zm2.645,3.445L7.5,8.684,5.719,7.012l-.687.727L7.5,10.066l3.844-3.707Z" transform="translate(-1.02 -1.02)"/></svg>
