<svg xmlns="http://www.w3.org/2000/svg" width="14" height="14" viewBox="0 0 14 13"><defs></defs><path class="a" d="M6.5,1A1.505,1.505,0,0,0,5,2.5V3H2.5A1.505,1.505,0,0,0,1,4.5v8A1.505,1.505,0,0,0,2.5,14h11A1.505,1.505,0,0,0,15,12.5v-8A1.505,1.505,0,0,0,13.5,3H11V2.5A1.505,1.505,0,0,0,9.5,1Zm0,1h3a.494.494,0,0,1,.5.5V3H6V2.5A.494.494,0,0,1,6.5,2Zm-4,2h11a.494.494,0,0,1,.5.5V8H12V7H10V8H6V7H4V8H2V4.5A.494.494,0,0,1,2.5,4ZM2,9H14v3.5a.494.494,0,0,1-.5.5H2.5a.494.494,0,0,1-.5-.5Z" transform="translate(-1 -1)"/></svg>
