<svg xmlns="http://www.w3.org/2000/svg" width="16" height="11" viewBox="0 0 16 11"><defs></defs><path class="a" d="M1.5,3A1.505,1.505,0,0,0,0,4.5v7A1.505,1.505,0,0,0,1.5,13h.594a1.489,1.489,0,0,0,2.813,0h6.16a1.489,1.489,0,0,0,2.813,0H14.5A1.508,1.508,0,0,0,16,11.5V9.8a1.514,1.514,0,0,0-.254-.836l-1.559-2.3A1.508,1.508,0,0,0,12.938,6H10V4.5A1.505,1.505,0,0,0,8.5,3Zm0,1h7a.494.494,0,0,1,.5.5V12H4.906a1.489,1.489,0,0,0-2.812,0H1.5a.494.494,0,0,1-.5-.5v-7A.494.494,0,0,1,1.5,4ZM7.148,6.016,4.5,8.668,2.852,7.02l-.7.707L4.5,10.082,7.852,6.727ZM10,7h2.938a.51.51,0,0,1,.418.223v0l1.559,2.3A.5.5,0,0,1,15,9.8v1.7a.494.494,0,0,1-.5.5h-.621a1.489,1.489,0,0,0-2.812,0H10ZM3.5,12a.5.5,0,1,1-.5.5A.494.494,0,0,1,3.5,12Zm8.973,0a.5.5,0,1,1-.5.5A.494.494,0,0,1,12.473,12Z" transform="translate(0 -3)"/></svg>
