<svg xmlns="http://www.w3.org/2000/svg" width="16" height="13" viewBox="0 0 16 13"><defs></defs><path class="a" d="M1.5,3A1.508,1.508,0,0,0,0,4.5v5A1.508,1.508,0,0,0,1.5,11H8V10H1.5A.493.493,0,0,1,1,9.5v-5A.493.493,0,0,1,1.5,4h12a.493.493,0,0,1,.5.5V8h1V4.5A1.508,1.508,0,0,0,13.5,3ZM3,6A1,1,0,1,0,4,7,1,1,0,0,0,3,6ZM6,6A1,1,0,1,0,7,7,1,1,0,0,0,6,6ZM9,6a1,1,0,1,0,1,1A1,1,0,0,0,9,6Zm3,0a1,1,0,1,0,1,1A1,1,0,0,0,12,6Zm.5,3a3.5,3.5,0,0,0-3.449,3H6.5l3,3,3-3H10.051A2.5,2.5,0,1,1,12.5,15v1a3.5,3.5,0,0,0,0-7Z" transform="translate(0 -3)"/></svg>
