<svg xmlns="http://www.w3.org/2000/svg" width="15" height="11" viewBox="0 0 15 11"><defs></defs><path class="a" d="M7.5,2A1.508,1.508,0,0,0,6,3.5a1.487,1.487,0,0,0,.391,1L3.352,6.016A1.487,1.487,0,0,0,2.6,8.691L1.27,10.023a1.506,1.506,0,1,0,1.129.285l1.1-1.1,1.1,1.1a1.5,1.5,0,1,0,1.129-.285L4.4,8.691A1.474,1.474,0,0,0,4.609,6.5L7.5,5.059,10.391,6.5A1.474,1.474,0,0,0,10.6,8.691L9.27,10.023a1.506,1.506,0,1,0,1.129.285l1.1-1.1,1.1,1.1a1.5,1.5,0,1,0,1.129-.285L12.4,8.691a1.487,1.487,0,0,0-.75-2.676L8.609,4.5A1.487,1.487,0,0,0,9,3.5,1.508,1.508,0,0,0,7.5,2Zm0,1a.5.5,0,1,1-.5.5A.493.493,0,0,1,7.5,3Zm-4,4a.5.5,0,1,1-.5.5A.493.493,0,0,1,3.5,7Zm8,0a.5.5,0,1,1-.5.5A.493.493,0,0,1,11.5,7Zm-10,4a.5.5,0,1,1-.5.5A.493.493,0,0,1,1.5,11Zm4,0a.5.5,0,1,1-.5.5A.493.493,0,0,1,5.5,11Zm4,0a.5.5,0,1,1-.5.5A.493.493,0,0,1,9.5,11Zm4,0a.5.5,0,1,1-.5.5A.493.493,0,0,1,13.5,11Z" transform="translate(0 -2)"/></svg>
