<svg xmlns="http://www.w3.org/2000/svg" width="16" height="13" viewBox="0 0 16 13"><defs></defs><path class="a" d="M8,2A4.013,4.013,0,0,0,4.133,5.023a2.516,2.516,0,0,0-2.1,2.137A3,3,0,0,0,3,13H6V12H3a2,2,0,0,1-.4-3.961l.41-.117L3,7.5A1.5,1.5,0,0,1,4.449,6l.1.012h.434l.063-.434a2.992,2.992,0,0,1,5.719-.746l.176.43.438-.148A1.973,1.973,0,0,1,14,7a1.936,1.936,0,0,1-.141.711l-.141.383.344.219A2,2,0,0,1,13,12H9v1h4a3,3,0,0,0,1.914-5.3A2.824,2.824,0,0,0,15,7a2.971,2.971,0,0,0-3.508-2.953A4,4,0,0,0,8,2ZM7.5,8,5,11H7v4H8V11h2Z" transform="translate(0 -2)"/></svg>
