<?xml version="1.0" standalone="no"?><!DOCTYPE svg PUBLIC "-//W3C//DTD SVG 1.1//EN" "http://www.w3.org/Graphics/SVG/1.1/DTD/svg11.dtd"><svg t="1585731568421" class="icon" viewBox="0 0 1024 1024" version="1.1" xmlns="http://www.w3.org/2000/svg" p-id="1972" xmlns:xlink="http://www.w3.org/1999/xlink" width="200" height="200"><defs><style type="text/css"></style></defs><path d="M267.377778 967.111111H113.777778c-62.577778 0-113.777778-45.511111-113.777778-108.088889V108.088889C0 45.511111 51.2 0 113.777778 0h625.777778c62.577778 0 113.777778 45.511111 113.777777 108.088889v153.6h-56.888889V108.088889c0-28.444444-22.755556-51.2-56.888888-51.2H113.777778c-34.133333 0-56.888889 22.755556-56.888889 51.2v750.933333c0 28.444444 22.755556 51.2 56.888889 51.2h153.6v56.888889z" p-id="1973"></path><path d="M597.333333 853.333333c125.155556 0 227.555556-102.4 227.555556-227.555555s-102.4-227.555556-227.555556-227.555556-227.555556 102.4-227.555555 227.555556 102.4 227.555556 227.555555 227.555555z m0 56.888889c-159.288889 0-284.444444-125.155556-284.444444-284.444444s125.155556-284.444444 284.444444-284.444445 284.444444 125.155556 284.444445 284.444445-125.155556 284.444444-284.444445 284.444444z" p-id="1974"></path><path d="M995.555556 654.222222h-170.666667v-56.888889h170.666667zM369.777778 654.222222h-170.666667v-56.888889h170.666667zM899.015111 364.316444l-120.661333 120.661334-40.220445-40.220445 120.661334-120.661333zM456.533333 806.798222l-120.661333 120.661334-40.220444-40.220445 120.661333-120.661333z" p-id="1975"></path><path d="M456.533333 444.757333l-40.220444 40.220445-120.661333-120.661334 40.220444-40.220444zM899.015111 887.239111l-40.220444 40.220445-120.661334-120.661334 40.220445-40.220444z" p-id="1976"></path><path d="M568.888889 227.555556h56.888889v170.666666h-56.888889zM568.888889 853.333333h56.888889v170.666667h-56.888889z" p-id="1977"></path></svg>