<?xml version="1.0" standalone="no"?><!DOCTYPE svg PUBLIC "-//W3C//DTD SVG 1.1//EN" "http://www.w3.org/Graphics/SVG/1.1/DTD/svg11.dtd"><svg t="1585731577874" class="icon" viewBox="0 0 1024 1024" version="1.1" xmlns="http://www.w3.org/2000/svg" p-id="2111" xmlns:xlink="http://www.w3.org/1999/xlink" width="200" height="200"><defs><style type="text/css"></style></defs><path d="M113.777778 56.888889c-34.133333 0-56.888889 34.133333-56.888889 68.266667v768c0 39.822222 22.755556 73.955556 56.888889 73.955555h512c34.133333 0 56.888889-34.133333 56.888889-68.266667V125.155556c0-34.133333-22.755556-68.266667-56.888889-68.266667H113.777778z m0-56.888889h512c62.577778 0 113.777778 62.577778 113.777778 136.533333v750.933334c0 73.955556-51.2 136.533333-113.777778 136.533333H113.777778c-62.577778 0-113.777778-62.577778-113.777778-136.533333V136.533333C0 62.577778 51.2 0 113.777778 0z" p-id="2112"></path><path d="M312.888889 227.555556h284.444444c17.066667 0 28.444444 11.377778 28.444445 28.444444s-11.377778 28.444444-28.444445 28.444444h-284.444444c-17.066667 0-28.444444-11.377778-28.444445-28.444444s11.377778-28.444444 28.444445-28.444444zM142.222222 455.111111h455.111111c17.066667 0 28.444444 11.377778 28.444445 28.444445s-11.377778 28.444444-28.444445 28.444444h-455.111111c-17.066667 0-28.444444-11.377778-28.444444-28.444444s11.377778-28.444444 28.444444-28.444445zM142.222222 682.666667h455.111111c17.066667 0 28.444444 11.377778 28.444445 28.444444s-11.377778 28.444444-28.444445 28.444445h-455.111111c-17.066667 0-28.444444-11.377778-28.444444-28.444445s11.377778-28.444444 28.444444-28.444444z" p-id="2113"></path><path d="M853.333333 796.444444h-56.888889V113.777778c0-62.577778 51.2-113.777778 113.777778-113.777778s113.777778 51.2 113.777778 113.777778v682.666666h-56.888889V113.777778c0-34.133333-22.755556-56.888889-56.888889-56.888889s-56.888889 22.755556-56.888889 56.888889v682.666666z" p-id="2114"></path><path d="M910.222222 1024l-113.777778-227.555556h227.555556z" p-id="2115"></path></svg>