<?xml version="1.0" standalone="no"?><!DOCTYPE svg PUBLIC "-//W3C//DTD SVG 1.1//EN" "http://www.w3.org/Graphics/SVG/1.1/DTD/svg11.dtd"><svg t="1585731581669" class="icon" viewBox="0 0 1024 1024" version="1.1" xmlns="http://www.w3.org/2000/svg" p-id="2249" xmlns:xlink="http://www.w3.org/1999/xlink" width="200" height="200"><defs><style type="text/css"></style></defs><path d="M227.555556 967.111111h512V284.444444a56.888889 56.888889 0 0 0-56.888889-56.888888H284.444444a56.888889 56.888889 0 0 0-56.888888 56.888888v682.666667zM284.444444 170.666667h398.222223a113.777778 113.777778 0 0 1 113.777777 113.777777v739.555556H170.666667V284.444444a113.777778 113.777778 0 0 1 113.777777-113.777777z" p-id="2250"></path><path d="M796.444444 56.888889H398.222222V0h455.111111a113.777778 113.777778 0 0 1 113.777778 113.777778v910.222222H398.222222v-56.888889h512V170.666667a113.777778 113.777778 0 0 0-113.777778-113.777778z" p-id="2251"></path><path d="M0 967.111111h1024v56.888889H0z" p-id="2252"></path><path d="M398.222222 967.111111h170.666667v-170.666667H398.222222v170.666667z m0-227.555555h170.666667a56.888889 56.888889 0 0 1 56.888889 56.888888v227.555556H341.333333v-227.555556a56.888889 56.888889 0 0 1 56.888889-56.888888zM341.333333 341.333333v56.888889h56.888889V341.333333H341.333333z m0-56.888889h56.888889a56.888889 56.888889 0 0 1 56.888889 56.888889v56.888889a56.888889 56.888889 0 0 1-56.888889 56.888889H341.333333a56.888889 56.888889 0 0 1-56.888889-56.888889V341.333333a56.888889 56.888889 0 0 1 56.888889-56.888889zM341.333333 568.888889v56.888889h56.888889v-56.888889H341.333333z m0-56.888889h56.888889a56.888889 56.888889 0 0 1 56.888889 56.888889v56.888889a56.888889 56.888889 0 0 1-56.888889 56.888889H341.333333a56.888889 56.888889 0 0 1-56.888889-56.888889v-56.888889a56.888889 56.888889 0 0 1 56.888889-56.888889zM568.888889 341.333333v56.888889h56.888889V341.333333h-56.888889z m0-56.888889h56.888889a56.888889 56.888889 0 0 1 56.888889 56.888889v56.888889a56.888889 56.888889 0 0 1-56.888889 56.888889h-56.888889a56.888889 56.888889 0 0 1-56.888889-56.888889V341.333333a56.888889 56.888889 0 0 1 56.888889-56.888889zM568.888889 568.888889v56.888889h56.888889v-56.888889h-56.888889z m0-56.888889h56.888889a56.888889 56.888889 0 0 1 56.888889 56.888889v56.888889a56.888889 56.888889 0 0 1-56.888889 56.888889h-56.888889a56.888889 56.888889 0 0 1-56.888889-56.888889v-56.888889a56.888889 56.888889 0 0 1 56.888889-56.888889z" p-id="2253"></path></svg>