<?xml version="1.0" standalone="no"?><!DOCTYPE svg PUBLIC "-//W3C//DTD SVG 1.1//EN" "http://www.w3.org/Graphics/SVG/1.1/DTD/svg11.dtd"><svg t="1585731585196" class="icon" viewBox="0 0 1024 1024" version="1.1" xmlns="http://www.w3.org/2000/svg" p-id="2387" xmlns:xlink="http://www.w3.org/1999/xlink" width="200" height="200"><defs><style type="text/css"></style></defs><path d="M318.577778 910.222222H113.777778c-62.577778 0-113.777778-51.2-113.777778-113.777778V113.777778C0 51.2 51.2 0 113.777778 0h512c62.577778 0 113.777778 51.2 113.777778 113.777778v51.2h-56.888889V113.777778c0-34.133333-22.755556-56.888889-56.888889-56.888889H113.777778c-34.133333 0-56.888889 22.755556-56.888889 56.888889v682.666666c0 34.133333 22.755556 56.888889 56.888889 56.888889h204.8v56.888889z" p-id="2388"></path><path d="M398.222222 170.666667c-34.133333 0-56.888889 22.755556-56.888889 56.888889v682.666666c0 34.133333 22.755556 56.888889 56.888889 56.888889h512c34.133333 0 56.888889-22.755556 56.888889-56.888889V227.555556c0-34.133333-22.755556-56.888889-56.888889-56.888889H398.222222z m0-56.888889h512c62.577778 0 113.777778 51.2 113.777778 113.777778v682.666666c0 62.577778-51.2 113.777778-113.777778 113.777778H398.222222c-62.577778 0-113.777778-51.2-113.777778-113.777778V227.555556c0-62.577778 51.2-113.777778 113.777778-113.777778z" p-id="2389"></path><path d="M426.666667 426.666667m-56.888889 0a56.888889 56.888889 0 1 0 113.777778 0 56.888889 56.888889 0 1 0-113.777778 0Z" p-id="2390"></path><path d="M426.666667 597.333333m-56.888889 0a56.888889 56.888889 0 1 0 113.777778 0 56.888889 56.888889 0 1 0-113.777778 0Z" p-id="2391"></path><path d="M426.666667 768m-56.888889 0a56.888889 56.888889 0 1 0 113.777778 0 56.888889 56.888889 0 1 0-113.777778 0Z" p-id="2392"></path><path d="M512 398.222222h398.222222v56.888889H512zM512 568.888889h398.222222v56.888889H512zM512 739.555556h398.222222v56.888888H512z" p-id="2393"></path></svg>