<?xml version="1.0" standalone="no"?><!DOCTYPE svg PUBLIC "-//W3C//DTD SVG 1.1//EN" "http://www.w3.org/Graphics/SVG/1.1/DTD/svg11.dtd"><svg t="1585731588153" class="icon" viewBox="0 0 1024 1024" version="1.1" xmlns="http://www.w3.org/2000/svg" p-id="2527" xmlns:xlink="http://www.w3.org/1999/xlink" width="200" height="200"><defs><style type="text/css"></style></defs><path d="M113.777778 56.888889a56.888889 56.888889 0 0 0-56.888889 56.888889v227.555555a56.888889 56.888889 0 0 0 56.888889 56.888889h227.555555a56.888889 56.888889 0 0 0 56.888889-56.888889V113.777778a56.888889 56.888889 0 0 0-56.888889-56.888889H113.777778z m0-56.888889h227.555555a113.777778 113.777778 0 0 1 113.777778 113.777778v227.555555a113.777778 113.777778 0 0 1-113.777778 113.777778H113.777778a113.777778 113.777778 0 0 1-113.777778-113.777778V113.777778a113.777778 113.777778 0 0 1 113.777778-113.777778zM113.777778 625.777778a56.888889 56.888889 0 0 0-56.888889 56.888889v227.555555a56.888889 56.888889 0 0 0 56.888889 56.888889h227.555555a56.888889 56.888889 0 0 0 56.888889-56.888889v-227.555555a56.888889 56.888889 0 0 0-56.888889-56.888889H113.777778z m0-56.888889h227.555555a113.777778 113.777778 0 0 1 113.777778 113.777778v227.555555a113.777778 113.777778 0 0 1-113.777778 113.777778H113.777778a113.777778 113.777778 0 0 1-113.777778-113.777778v-227.555555a113.777778 113.777778 0 0 1 113.777778-113.777778zM682.666667 625.777778a56.888889 56.888889 0 0 0-56.888889 56.888889v227.555555a56.888889 56.888889 0 0 0 56.888889 56.888889h227.555555a56.888889 56.888889 0 0 0 56.888889-56.888889v-227.555555a56.888889 56.888889 0 0 0-56.888889-56.888889h-227.555555z m0-56.888889h227.555555a113.777778 113.777778 0 0 1 113.777778 113.777778v227.555555a113.777778 113.777778 0 0 1-113.777778 113.777778h-227.555555a113.777778 113.777778 0 0 1-113.777778-113.777778v-227.555555a113.777778 113.777778 0 0 1 113.777778-113.777778zM660.935111 398.222222h271.018667L796.444444 127.203556 660.935111 398.222222zM796.444444 0l227.555556 455.111111h-455.111111l227.555555-455.111111z" p-id="2528"></path></svg>