<?xml version="1.0" standalone="no"?><!DOCTYPE svg PUBLIC "-//W3C//DTD SVG 1.1//EN" "http://www.w3.org/Graphics/SVG/1.1/DTD/svg11.dtd"><svg t="1585731592272" class="icon" viewBox="0 0 1024 1024" version="1.1" xmlns="http://www.w3.org/2000/svg" p-id="2662" xmlns:xlink="http://www.w3.org/1999/xlink" width="200" height="200"><defs><style type="text/css"></style></defs><path d="M227.555556 113.777778H113.777778a56.888889 56.888889 0 0 0-56.888889 56.888889v739.555555a56.888889 56.888889 0 0 0 56.888889 56.888889h796.444444a56.888889 56.888889 0 0 0 56.888889-56.888889V170.666667a56.888889 56.888889 0 0 0-56.888889-56.888889h-113.777778v56.888889a56.888889 56.888889 0 0 1-56.888888 56.888889H284.444444a56.888889 56.888889 0 0 1-56.888888-56.888889V113.777778z m568.888888-56.888889h113.777778a113.777778 113.777778 0 0 1 113.777778 113.777778v739.555555a113.777778 113.777778 0 0 1-113.777778 113.777778H113.777778a113.777778 113.777778 0 0 1-113.777778-113.777778V170.666667a113.777778 113.777778 0 0 1 113.777778-113.777778h113.777778a56.888889 56.888889 0 0 1 56.888888-56.888889h455.111112a56.888889 56.888889 0 0 1 56.888888 56.888889zM284.444444 56.888889v113.777778h455.111112V56.888889H284.444444zM199.111111 341.333333h625.777778a28.444444 28.444444 0 1 1 0 56.888889h-625.777778a28.444444 28.444444 0 0 1 0-56.888889z m0 227.555556h625.777778a28.444444 28.444444 0 1 1 0 56.888889h-625.777778a28.444444 28.444444 0 1 1 0-56.888889z m0 227.555555h341.333333a28.444444 28.444444 0 1 1 0 56.888889h-341.333333a28.444444 28.444444 0 1 1 0-56.888889z" p-id="2663"></path></svg>