<?xml version="1.0" standalone="no"?><!DOCTYPE svg PUBLIC "-//W3C//DTD SVG 1.1//EN" "http://www.w3.org/Graphics/SVG/1.1/DTD/svg11.dtd"><svg t="1585731540696" class="icon" viewBox="0 0 1024 1024" version="1.1" xmlns="http://www.w3.org/2000/svg" p-id="1834" xmlns:xlink="http://www.w3.org/1999/xlink" width="200" height="200"><defs><style type="text/css"></style></defs><path d="M318.577778 853.333333H113.777778c-62.577778 0-113.777778-45.511111-113.777778-108.088889V108.088889C0 45.511111 51.2 0 113.777778 0h512c62.577778 0 113.777778 45.511111 113.777778 108.088889v85.333333h-56.888889V108.088889c0-28.444444-22.755556-51.2-56.888889-51.2H113.777778c-34.133333 0-56.888889 22.755556-56.888889 51.2v637.155555c0 28.444444 22.755556 51.2 56.888889 51.2h204.8v56.888889z" p-id="1835"></path><path d="M398.222222 227.555556c-34.133333 0-56.888889 22.755556-56.888889 56.888888v625.777778c0 34.133333 22.755556 56.888889 56.888889 56.888889h512c34.133333 0 56.888889-22.755556 56.888889-56.888889V284.444444c0-34.133333-22.755556-56.888889-56.888889-56.888888H398.222222z m0-56.888889h512c62.577778 0 113.777778 51.2 113.777778 113.777777v625.777778c0 62.577778-51.2 113.777778-113.777778 113.777778H398.222222c-62.577778 0-113.777778-51.2-113.777778-113.777778V284.444444c0-62.577778 51.2-113.777778 113.777778-113.777777z" p-id="1836"></path><path d="M910.222222 625.777778h-56.888889v-56.888889h56.888889zM455.111111 625.777778H398.222222v-56.888889h56.888889zM855.381333 436.451556l-40.277333 40.220444-40.220444-40.220444 40.220444-40.277334zM533.560889 758.215111l-40.220445 40.277333-40.277333-40.277333 40.277333-40.220444zM533.560889 436.451556l-40.220445 40.220444-40.277333-40.220444 40.277333-40.277334zM855.381333 758.215111l-40.277333 40.277333-40.220444-40.277333 40.220444-40.220444zM625.777778 341.333333h56.888889v56.888889h-56.888889zM625.777778 796.444444h56.888889v56.888889h-56.888889z" p-id="1837"></path><path d="M654.222222 739.555556c79.644444 0 142.222222-62.577778 142.222222-142.222223S733.866667 455.111111 654.222222 455.111111 512 517.688889 512 597.333333s62.577778 142.222222 142.222222 142.222223z m0 56.888888C546.133333 796.444444 455.111111 705.422222 455.111111 597.333333S546.133333 398.222222 654.222222 398.222222 853.333333 489.244444 853.333333 597.333333 762.311111 796.444444 654.222222 796.444444z" p-id="1838"></path></svg>