<?xml version="1.0" encoding="UTF-8"?>
<svg width="16px" height="16px" viewBox="0 0 16 16" version="1.1" xmlns="http://www.w3.org/2000/svg" xmlns:xlink="http://www.w3.org/1999/xlink">
    <!-- Generator: Sketch 62 (91390) - https://sketch.com -->
    <title>显示密码icon</title>
    <desc>Created with Sketch.</desc>
    <g id="页面1" stroke="none" stroke-width="1" fill="none" fill-rule="evenodd">
        <g id="显示密码icon" fill="#012C4A" fill-rule="nonzero">
            <g id="eye" transform="translate(0.000000, 2.000000)">
                <path d="M8,0.5 C5.89248514,0.5 4.04230159,1.52079092 2.46477685,3.20348398 C1.92074781,3.78378162 1.44795621,4.40383618 1.04730986,5.02419183 C0.953612591,5.16927147 0.868270616,5.30766964 0.79134827,5.43792803 L0.602763816,5.77147647 C0.581169763,5.81172754 0.564500091,5.84387492 0.552786405,5.86730229 C0.482404532,6.00806604 0.482404532,6.17375214 0.552786405,6.31451589 L0.638844231,6.47671906 L0.682287516,6.55478971 C0.785017464,6.73742073 0.906763958,6.9400069 1.04730986,7.15762635 C1.44795621,7.777982 1.92074781,8.39803656 2.46477685,8.9783342 C4.04230159,10.6610273 5.89248514,11.6818182 8,11.6818182 C10.1075149,11.6818182 11.9576984,10.6610273 13.5352231,8.9783342 C14.0792522,8.39803656 14.5520438,7.777982 14.9526901,7.15762635 C15.0463874,7.01254672 15.1317294,6.87414854 15.2086517,6.74389015 L15.3972362,6.41034171 C15.4188302,6.37009064 15.4354999,6.33794326 15.4472136,6.31451589 C15.5175955,6.17375214 15.5175955,6.00806604 15.4472136,5.86730229 L15.3611558,5.70509912 L15.3177125,5.62702847 C15.2149825,5.44439745 15.093236,5.24181129 14.9526901,5.02419183 C14.5520438,4.40383618 14.0792522,3.78378162 13.5352231,3.20348398 C11.9576984,1.52079092 10.1075149,0.5 8,0.5 Z M8,1.5 C9.79021241,1.5 11.4002561,2.38829999 12.8056859,3.88742511 C13.305691,4.42076383 13.7427005,4.99389109 14.1126508,5.56671726 L14.2838428,5.83926331 L14.431,6.091 L14.2838428,6.34255487 C14.2327774,6.42633186 14.1756895,6.51749262 14.1126508,6.61510092 C13.7427005,7.18792709 13.305691,7.76105435 12.8056859,8.29439307 C11.4002561,9.7935182 9.79021241,10.6818182 8,10.6818182 C6.20978759,10.6818182 4.59974386,9.7935182 3.19431406,8.29439307 C2.694309,7.76105435 2.25729947,7.18792709 1.88734923,6.61510092 L1.71615725,6.34255487 L1.568,6.091 L1.71615725,5.83926331 C1.76722259,5.75548632 1.82431054,5.66432556 1.88734923,5.56671726 C2.25729947,4.99389109 2.694309,4.42076383 3.19431406,3.88742511 C4.59974386,2.38829999 6.20978759,1.5 8,1.5 Z" id="路径"></path>
                <path d="M8,3.68181818 C6.66949583,3.68181818 5.59090909,4.76040492 5.59090909,6.09090909 C5.59090909,7.42141326 6.66949583,8.5 8,8.5 C9.33050417,8.5 10.4090909,7.42141326 10.4090909,6.09090909 C10.4090909,4.76040492 9.33050417,3.68181818 8,3.68181818 Z M8,4.68181818 C8.77821942,4.68181818 9.40909091,5.31268967 9.40909091,6.09090909 C9.40909091,6.86912851 8.77821942,7.5 8,7.5 C7.22178058,7.5 6.59090909,6.86912851 6.59090909,6.09090909 C6.59090909,5.31268967 7.22178058,4.68181818 8,4.68181818 Z" id="椭圆形"></path>
            </g>
        </g>
    </g>
</svg>