<svg xmlns="http://www.w3.org/2000/svg" width="15.102" height="11.957" viewBox="0 0 15.102 11.957"><defs><style>.a{fill:#032544;}</style></defs><path class="a" d="M2.676,2.023l-.707.7L3.938,4.7A8.006,8.006,0,0,0-.008,8.289L-.1,8.5l.094.211A8.148,8.148,0,0,0,7.445,13a8.71,8.71,0,0,0,3.918-.875l1.855,1.855.707-.711-2.395-2.395-.184-.18s0,0,0,0l-.73-.73h0L8.922,8.27s0,0,0,0L7.684,7.023h0l-1.7-1.7h0l-1-1s0,0,0,0ZM7.445,4a9.5,9.5,0,0,0-1.281.094l.945.938C7.223,5.023,7.332,5,7.445,5a3.505,3.505,0,0,1,3.5,3.5,3.416,3.416,0,0,1-.035.344l.855.852a4.294,4.294,0,0,0,.18-1.2,4.446,4.446,0,0,0-.891-2.66A7.057,7.057,0,0,1,13.883,8.5a7.113,7.113,0,0,1-1.531,1.777l.723.723a7.606,7.606,0,0,0,1.832-2.289L15,8.5l-.1-.211A8.15,8.15,0,0,0,7.445,4ZM3.824,5.859a4.4,4.4,0,0,0,.016,5.3A7.03,7.03,0,0,1,1.016,8.5,7.168,7.168,0,0,1,3.824,5.859Zm1.309.031L6.547,7.3A1.5,1.5,0,1,0,8.641,9.4l1.418,1.418A3.49,3.49,0,1,1,5.133,5.891Z" transform="translate(0.102 -2.023)"/></svg>