<?xml version="1.0" standalone="no"?><!DOCTYPE svg PUBLIC "-//W3C//DTD SVG 1.1//EN" "http://www.w3.org/Graphics/SVG/1.1/DTD/svg11.dtd"><svg t="1552444443429" class="icon" style="" viewBox="0 0 1210 1024" version="1.1" xmlns="http://www.w3.org/2000/svg" p-id="1406" xmlns:xlink="http://www.w3.org/1999/xlink" width="236.328125" height="200"><defs><style type="text/css"></style></defs><path d="M1117.090909 1024H93.090909c-51.2 0-93.090909-41.890909-93.090909-93.090909s41.890909-93.090909 93.090909-93.090909h1024c51.2 0 93.090909 41.890909 93.090909 93.090909s-41.890909 93.090909-93.090909 93.090909zM1117.090909 605.090909H93.090909c-51.2 0-93.090909-41.890909-93.090909-93.090909s41.890909-93.090909 93.090909-93.090909h1024c51.2 0 93.090909 41.890909 93.090909 93.090909s-41.890909 93.090909-93.090909 93.090909zM1117.090909 186.181818H93.090909C41.890909 186.181818 0 144.290909 0 93.090909s41.890909-93.090909 93.090909-93.090909h1024c51.2 0 93.090909 41.890909 93.090909 93.090909s-41.890909 93.090909-93.090909 93.090909z" p-id="1407"></path></svg>